<svg width="40" height="40" viewBox="0 0 40 40" fill="none" xmlns="http://www.w3.org/2000/svg">
<path d="M18.5222 11.7543C18.9294 11.3994 19.4816 11.2 20.0574 11.2C20.6332 11.2 21.1854 11.3994 21.5926 11.7543L31.3642 20.273C31.7713 20.628 32 21.1095 32 21.6114C32 22.1134 31.7713 22.5948 31.3642 22.9498L21.5926 31.4686C21.1831 31.8134 20.6346 32.0043 20.0652 31.9999C19.4959 31.9956 18.9512 31.7965 18.5486 31.4455C18.146 31.0946 17.9177 30.6198 17.9127 30.1234C17.9078 29.627 18.1266 29.1489 18.5222 28.7918L24.4003 23.5045H3.77144C3.19553 23.5045 2.64321 23.3051 2.23598 22.95C1.82875 22.595 1.59998 22.1135 1.59998 21.6114C1.59998 21.1094 1.82875 20.6279 2.23598 20.2728C2.64321 19.9178 3.19553 19.7184 3.77144 19.7184H24.4003L18.5222 14.4311C18.1151 14.0761 17.8864 13.5946 17.8864 13.0927C17.8864 12.5907 18.1151 12.1093 18.5222 11.7543Z" fill="black"/>
</svg>
