<svg width="93" height="88" viewBox="0 0 93 88" fill="none" xmlns="http://www.w3.org/2000/svg">
<path d="M6.37519 30.8414V30.7812C6.37511 24.8364 8.13573 19.0248 11.4349 14.0795C14.7342 9.13424 19.4241 5.2769 24.9132 2.99414C30.4022 0.711394 36.4444 0.10551 42.2774 1.25293C48.1104 2.40036 53.4729 5.24968 57.6884 9.44142C61.0051 7.8044 64.7098 7.11612 68.3931 7.45261C72.0765 7.78911 75.5951 9.13729 78.5603 11.3482C81.5255 13.5591 83.8218 16.5467 85.1954 19.9808C86.5691 23.415 86.9667 27.162 86.3443 30.808C87.2594 30.8929 88.1472 31.1655 88.9522 31.6089C89.7572 32.0522 90.4622 32.6567 91.0232 33.3846C91.5842 34.1125 91.9892 34.9482 92.2128 35.8396C92.4364 36.731 92.4739 37.659 92.3229 38.5655C89.3002 56.7488 81.8236 68.258 69.9064 73.0997V77.5937C69.9064 80.2542 68.8496 82.8057 66.9684 84.6869C65.0871 86.5681 62.5356 87.625 59.8752 87.625H33.1252C30.4647 87.625 27.9132 86.5681 26.032 84.6869C24.1508 82.8057 23.0939 80.2542 23.0939 77.5937V73.0997C11.1768 68.258 3.70019 56.7488 0.677441 38.5655C0.531558 37.683 0.564178 36.7803 0.77337 35.9107C0.982562 35.041 1.36408 34.2222 1.89533 33.5026C2.42659 32.7831 3.09679 32.1774 3.86628 31.7214C4.63577 31.2655 5.4889 30.9685 6.37519 30.8481V30.8414ZM13.0627 30.7812H19.7502C19.7502 26.3471 21.5116 22.0947 24.647 18.9593C27.7824 15.8239 32.0349 14.0625 36.4689 14.0625C40.903 14.0625 45.1555 15.8239 48.2909 18.9593C51.4263 22.0947 53.1877 26.3471 53.1877 30.7812H59.8752C59.8752 24.5735 57.4092 18.62 53.0197 14.2305C48.6301 9.84099 42.6767 7.37499 36.4689 7.37499C30.2612 7.37499 24.3077 9.84099 19.9182 14.2305C15.5287 18.62 13.0627 24.5735 13.0627 30.7812ZM26.4377 30.7812H46.5002C46.5002 28.1208 45.4433 25.5693 43.5621 23.6881C41.6809 21.8068 39.1294 20.75 36.4689 20.75C33.8085 20.75 31.257 21.8068 29.3758 23.6881C27.4945 25.5693 26.4377 28.1208 26.4377 30.7812ZM72.3541 30.7812H79.5164C80.0212 28.8049 80.0683 26.7394 79.654 24.7421C79.2397 22.7448 78.3749 20.8684 77.1256 19.256C75.8762 17.6435 74.2753 16.3375 72.4448 15.4375C70.6143 14.5375 68.6025 14.0672 66.5627 14.0625C64.9577 14.0625 63.4329 14.3434 62.0152 14.8583C63.1989 16.7575 64.1752 18.8039 64.9242 20.9506C66.198 20.6347 67.5364 20.6997 68.7735 21.1377C70.0106 21.5756 71.0919 22.3672 71.8832 23.4141C72.6745 24.4611 73.1409 25.7173 73.2246 27.027C73.3083 28.3367 73.0056 29.6421 72.3541 30.7812ZM63.2189 74.25H29.7814V77.5937C29.7814 78.4806 30.1337 79.3311 30.7608 79.9581C31.3879 80.5852 32.2384 80.9375 33.1252 80.9375H59.8752C60.762 80.9375 61.6125 80.5852 62.2396 79.9581C62.8667 79.3311 63.2189 78.4806 63.2189 77.5937V74.25ZM27.4274 67.5625H65.5729C76.1793 64.1519 82.8936 54.5085 85.7291 37.4687H7.27132C10.1068 54.5085 16.8211 64.1519 27.4274 67.5625Z" fill="#380869"/>
</svg>
