<svg width="92" height="80" viewBox="0 0 92 80" fill="none" xmlns="http://www.w3.org/2000/svg">
<path fill-rule="evenodd" clip-rule="evenodd" d="M38.8124 0C30.0436 0 21.6339 3.46172 15.4334 9.62363C9.23295 15.7855 5.74956 24.1429 5.74956 32.8571V35.8171C4.00145 36.8203 2.54983 38.263 1.54058 40.0003C0.531326 41.7376 0 43.7083 0 45.7143C0 47.7203 0.531326 49.691 1.54058 51.4283C2.54983 53.1656 4.00145 54.6083 5.74956 55.6114V64.2857C5.74956 68.4534 7.41553 72.4504 10.381 75.3974C13.3464 78.3444 17.3684 80 21.5622 80H70.4378C74.6315 80 78.6536 78.3444 81.619 75.3974C84.5845 72.4504 86.2504 68.4534 86.2504 64.2857V55.6114C87.9985 54.6083 89.4502 53.1656 90.4594 51.4283C91.4687 49.691 92 47.7203 92 45.7143C92 43.7083 91.4687 41.7376 90.4594 40.0003C89.4502 38.263 87.9985 36.8203 86.2504 35.8171V32.8571C86.2504 24.1429 82.767 15.7855 76.5666 9.62363C70.3661 3.46172 61.9564 0 53.1876 0H38.8124ZM80.5004 42.8571H11.4996C10.7371 42.8571 10.0058 43.1582 9.46667 43.694C8.92749 44.2298 8.62459 44.9565 8.62459 45.7143C8.62459 46.472 8.92749 47.1988 9.46667 47.7346C10.0058 48.2704 10.7371 48.5714 11.4996 48.5714H80.5004C81.2629 48.5714 81.9942 48.2704 82.5333 47.7346C83.0725 47.1988 83.3754 46.472 83.3754 45.7143C83.3754 44.9565 83.0725 44.2298 82.5333 43.694C81.9942 43.1582 81.2629 42.8571 80.5004 42.8571ZM77.6253 34.2857V32.8571C77.6253 26.4162 75.0507 20.239 70.4677 15.6846C65.8847 11.1301 59.6689 8.57143 53.1876 8.57143H38.8124C32.3311 8.57143 26.1153 11.1301 21.5323 15.6846C16.9493 20.239 14.3747 26.4162 14.3747 32.8571V34.2857H77.6253ZM63.2502 57.1429H77.6253V64.2857C77.6253 68.2286 74.4053 71.4286 70.4378 71.4286H21.5622C17.5947 71.4286 14.3747 68.2286 14.3747 64.2857V57.1429H51.7501L57.5001 62.8571L63.2502 57.1429Z" fill="#380869"/>
</svg>
