<?xml version="1.0" encoding="UTF-8"?>
<!-- Generator: visioncortex VTracer 0.6.3 -->
<svg version="1.1" xmlns="http://www.w3.org/2000/svg" width="1280" height="1280">
<path d="M0 0 C1.5 -0 3 -0.01 4.51 -0.01 C8.62 -0.02 12.73 -0.02 16.85 -0.01 C21.33 -0.01 25.81 -0.02 30.29 -0.02 C38.14 -0.03 45.99 -0.04 53.84 -0.03 C65.51 -0.03 77.19 -0.04 88.86 -0.05 C110.92 -0.07 132.99 -0.08 155.05 -0.08 C172.09 -0.08 189.13 -0.08 206.17 -0.09 C211.08 -0.09 215.98 -0.09 220.89 -0.09 C222.11 -0.09 223.33 -0.09 224.58 -0.09 C258.89 -0.11 293.19 -0.12 327.5 -0.11 C329.44 -0.11 329.44 -0.11 331.42 -0.11 C337.97 -0.11 344.53 -0.11 351.08 -0.11 C352.38 -0.11 353.68 -0.11 355.02 -0.11 C357.66 -0.11 360.29 -0.11 362.92 -0.11 C403.88 -0.11 444.83 -0.13 485.78 -0.15 C531.8 -0.19 577.82 -0.2 623.83 -0.2 C628.74 -0.2 633.65 -0.2 638.56 -0.2 C640.37 -0.2 640.37 -0.2 642.22 -0.2 C661.66 -0.2 681.09 -0.21 700.53 -0.23 C720.07 -0.25 739.61 -0.25 759.15 -0.24 C770.75 -0.23 782.35 -0.23 793.95 -0.25 C801.71 -0.26 809.47 -0.26 817.23 -0.25 C821.65 -0.24 826.06 -0.24 830.48 -0.25 C864.22 -0.37 893.37 3.51 919.9 26.26 C920.51 26.74 921.12 27.21 921.75 27.71 C942.6 44.32 953.39 71.7 956.61 97.38 C957.59 107.28 957.31 117.3 957.28 127.24 C957.28 129.94 957.29 132.64 957.29 135.34 C957.3 141.19 957.3 147.03 957.3 152.87 C957.29 161.56 957.29 170.25 957.3 178.93 C957.32 194.45 957.31 209.98 957.31 225.5 C957.3 239.08 957.3 252.66 957.3 266.25 C957.3 267.15 957.3 268.05 957.3 268.98 C957.3 272.65 957.3 276.31 957.3 279.98 C957.31 314.32 957.3 348.66 957.29 383 C957.27 413.49 957.28 443.97 957.29 474.45 C957.31 508.73 957.31 543.01 957.3 577.29 C957.3 580.95 957.3 584.61 957.3 588.27 C957.3 589.62 957.3 589.62 957.3 591 C957.3 604.57 957.3 618.14 957.31 631.71 C957.32 647.15 957.31 662.59 957.3 678.03 C957.29 686.66 957.29 695.29 957.3 703.92 C957.31 709.69 957.3 715.47 957.29 721.24 C957.28 724.53 957.28 727.81 957.29 731.09 C957.38 767.44 950.04 797.86 924.21 824.44 C904.51 844.04 877.57 854.41 849.94 854.53 C848.56 854.52 847.18 854.52 845.8 854.51 C844.3 854.52 842.79 854.52 841.29 854.53 C837.18 854.53 833.06 854.53 828.95 854.53 C824.47 854.52 819.99 854.53 815.51 854.54 C807.66 854.55 799.81 854.55 791.96 854.55 C780.28 854.55 768.61 854.55 756.94 854.57 C734.87 854.58 712.81 854.59 690.75 854.59 C673.71 854.59 656.67 854.6 639.63 854.6 C634.72 854.6 629.82 854.61 624.91 854.61 C623.08 854.61 623.08 854.61 621.21 854.61 C586.91 854.62 552.61 854.63 518.3 854.63 C516.36 854.63 516.36 854.63 514.38 854.63 C507.83 854.63 501.27 854.63 494.72 854.63 C493.42 854.63 492.11 854.63 490.77 854.63 C488.14 854.63 485.51 854.63 482.87 854.63 C441.92 854.63 400.97 854.64 360.02 854.67 C314 854.7 267.98 854.72 221.97 854.71 C217.06 854.71 212.15 854.71 207.24 854.71 C205.43 854.71 205.43 854.71 203.58 854.71 C184.14 854.71 164.71 854.73 145.27 854.74 C125.73 854.76 106.19 854.76 86.65 854.75 C75.05 854.74 63.44 854.75 51.84 854.77 C44.08 854.78 36.32 854.78 28.57 854.76 C24.15 854.75 19.74 854.75 15.32 854.77 C-18.49 854.88 -47.49 850.95 -74.1 828.26 C-75.11 827.49 -76.12 826.73 -77.16 825.94 C-81.68 821.81 -85.36 817.09 -89.1 812.26 C-89.71 811.47 -90.32 810.69 -90.95 809.88 C-109.25 785.15 -111.57 757.05 -111.48 727.27 C-111.49 724.57 -111.49 721.87 -111.5 719.17 C-111.51 713.33 -111.51 707.49 -111.5 701.64 C-111.49 692.96 -111.49 684.27 -111.5 675.58 C-111.52 660.06 -111.52 644.54 -111.51 629.02 C-111.5 615.43 -111.5 601.85 -111.5 588.27 C-111.5 587.36 -111.5 586.46 -111.5 585.53 C-111.5 581.87 -111.51 578.2 -111.51 574.54 C-111.52 540.2 -111.51 505.85 -111.49 471.51 C-111.48 441.03 -111.48 410.55 -111.49 380.07 C-111.51 345.78 -111.52 311.5 -111.51 277.22 C-111.5 273.56 -111.5 269.9 -111.5 266.25 C-111.5 264.9 -111.5 264.9 -111.5 263.52 C-111.5 249.95 -111.5 236.38 -111.51 222.8 C-111.52 207.37 -111.52 191.93 -111.5 176.49 C-111.49 167.86 -111.49 159.23 -111.5 150.6 C-111.51 144.82 -111.5 139.05 -111.49 133.27 C-111.48 129.99 -111.48 126.7 -111.49 123.42 C-111.58 91.72 -106.76 63.36 -86.1 38.26 C-85.53 37.53 -84.95 36.81 -84.36 36.06 C-63.83 11.11 -31.38 -0.1 0 0 Z M49.9 107.26 C51.05 110.7 51.7 111.08 54.63 113.01 C55.4 113.53 56.18 114.05 56.98 114.58 C57.82 115.14 58.66 115.69 59.52 116.26 C61.27 117.43 63.02 118.61 64.77 119.78 C65.64 120.37 66.52 120.96 67.41 121.56 C70.84 123.9 74.19 126.34 77.52 128.82 C84.85 134.25 92.28 139.5 99.74 144.74 C103.3 147.24 106.85 149.75 110.4 152.26 C114.63 155.25 118.87 158.24 123.11 161.22 C130.35 166.31 137.55 171.44 144.71 176.63 C151.9 181.84 159.15 186.95 166.43 192.02 C171.99 195.9 177.49 199.84 182.96 203.82 C189.07 208.27 195.26 212.58 201.52 216.82 C208.18 221.33 214.66 226.01 221.05 230.88 C226.86 235.27 232.82 239.39 238.84 243.48 C249.69 250.87 260.33 258.56 270.96 266.26 C277.4 270.92 283.91 275.48 290.43 280.02 C295.99 283.9 301.49 287.84 306.96 291.82 C313.1 296.28 319.31 300.62 325.59 304.88 C331.93 309.19 338.18 313.6 344.34 318.17 C351.06 323.14 357.9 327.94 364.74 332.74 C368.3 335.24 371.85 337.75 375.4 340.26 C379.63 343.25 383.87 346.24 388.11 349.22 C389.52 350.21 390.93 351.2 392.34 352.19 C393.03 352.68 393.72 353.17 394.43 353.66 C398.24 356.35 402.03 359.07 405.79 361.83 C407.01 362.72 407.01 362.72 408.25 363.63 C409.81 364.77 411.37 365.92 412.92 367.07 C414.89 368.51 416.88 369.89 418.9 371.26 C419.73 371.82 420.56 372.39 421.41 372.97 C425.81 373.48 428.63 370.38 431.96 367.76 C433.57 366.54 435.19 365.32 436.8 364.1 C437.64 363.47 438.48 362.83 439.34 362.18 C443.47 359.08 447.72 356.14 451.96 353.19 C453.65 352.02 455.33 350.84 457.02 349.66 C457.84 349.09 458.66 348.52 459.5 347.93 C468.96 341.33 478.37 334.66 487.71 327.88 C496.57 321.46 505.53 315.19 514.5 308.93 C524.72 301.8 534.87 294.57 544.96 287.25 C551.4 282.59 557.91 278.04 564.43 273.49 C569.99 269.62 575.49 265.68 580.96 261.69 C587.07 257.25 593.26 252.93 599.52 248.69 C606.18 244.19 612.66 239.5 619.05 234.64 C624.86 230.24 630.82 226.13 636.84 222.03 C647.71 214.62 658.38 206.92 669.02 199.19 C674.46 195.26 679.97 191.46 685.52 187.69 C692.18 183.19 698.66 178.5 705.05 173.64 C710.86 169.24 716.82 165.13 722.84 161.03 C733.68 153.64 744.33 145.96 754.95 138.26 C760.64 134.14 766.39 130.09 772.15 126.07 C773.4 125.2 773.4 125.2 774.67 124.3 C781.07 119.83 781.07 119.83 784.14 117.7 C786.15 116.31 788.15 114.91 790.15 113.51 C790.74 113.1 791.33 112.69 791.94 112.28 C793.3 111.32 794.6 110.3 795.9 109.26 C795.9 108.6 795.9 107.94 795.9 107.26 C549.72 107.26 303.54 107.26 49.9 107.26 Z M49.9 270.26 C49.9 427.67 49.9 585.08 49.9 747.26 C296.08 747.26 542.26 747.26 795.9 747.26 C795.9 589.85 795.9 432.44 795.9 270.26 C793.03 271.69 790.6 273.05 787.98 274.84 C787.23 275.35 786.48 275.87 785.71 276.39 C784.9 276.95 784.1 277.5 783.27 278.07 C782.43 278.65 781.59 279.22 780.73 279.82 C773.51 284.8 766.39 289.92 759.3 295.07 C754.33 298.68 749.31 302.21 744.29 305.74 C739.17 309.35 734.09 313.01 729.02 316.69 C722.85 321.18 716.6 325.54 710.27 329.82 C703.62 334.33 697.14 339.01 690.74 343.88 C684.94 348.27 678.97 352.39 672.96 356.48 C662.11 363.87 651.47 371.56 640.84 379.26 C634.4 383.92 627.89 388.48 621.36 393.02 C615.81 396.9 610.31 400.84 604.84 404.82 C598.7 409.28 592.49 413.62 586.21 417.88 C579.86 422.19 573.62 426.6 567.46 431.17 C560.03 436.66 552.46 441.95 544.9 447.26 C542.08 449.23 539.27 451.21 536.46 453.19 C535.41 453.93 535.41 453.93 534.34 454.69 C529.2 458.32 524.11 462 519.02 465.69 C512.82 470.2 506.55 474.58 500.21 478.88 C493.86 483.19 487.62 487.6 481.46 492.17 C474.03 497.66 466.46 502.95 458.9 508.26 C456.79 509.74 454.68 511.23 452.57 512.71 C451.17 513.7 449.77 514.68 448.37 515.66 C444.52 518.36 440.74 521.12 437 523.97 C436.19 524.58 435.38 525.19 434.55 525.82 C432.98 527.01 431.42 528.21 429.87 529.42 C424.64 533.35 424.64 533.35 421.34 532.95 C418.02 530.65 414.77 528.3 411.59 525.82 C406.16 521.67 400.68 517.65 395.02 513.82 C389.3 509.94 383.67 505.95 378.09 501.88 C371.87 497.36 365.58 492.95 359.21 488.63 C352.86 484.32 346.62 479.91 340.46 475.35 C333.03 469.85 325.46 464.57 317.9 459.26 C309.26 453.18 300.64 447.08 292.09 440.88 C283.23 434.46 274.27 428.19 265.3 421.93 C255.05 414.78 244.88 407.53 234.77 400.19 C229.34 396.25 223.83 392.46 218.27 388.69 C211.62 384.19 205.14 379.5 198.74 374.64 C192.94 370.24 186.97 366.13 180.96 362.03 C170.87 355.16 160.96 348.04 151.09 340.88 C142.23 334.46 133.27 328.19 124.3 321.93 C114.08 314.8 103.93 307.57 93.85 300.26 C87.35 295.55 80.78 290.96 74.19 286.38 C68.17 282.18 62.24 277.88 56.39 273.46 C53.46 271.03 53.46 271.03 49.9 270.26 Z " fill="#000000" transform="translate(217.10152435302734,212.74273109436035)"/>
</svg>
