<svg width="73" height="73" viewBox="0 0 73 73" fill="none" xmlns="http://www.w3.org/2000/svg">
<path d="M23.849 38.24C23.132 38.24 22.4312 38.4526 21.835 38.8509C21.2389 39.2492 20.7743 39.8154 20.4999 40.4778C20.2255 41.1402 20.1538 41.869 20.2936 42.5722C20.4335 43.2754 20.7788 43.9213 21.2857 44.4283C21.7927 44.9352 22.4386 45.2805 23.1418 45.4204C23.845 45.5602 24.5738 45.4884 25.2362 45.2141C25.8986 44.9397 26.4647 44.4751 26.8631 43.8789C27.2614 43.2828 27.474 42.582 27.474 41.865C27.474 40.9036 27.0921 39.9816 26.4122 39.3017C25.7324 38.6219 24.8104 38.24 23.849 38.24ZM23.849 22C23.132 22 22.4312 22.2126 21.835 22.6109C21.2389 23.0092 20.7743 23.5754 20.4999 24.2378C20.2255 24.9002 20.1538 25.629 20.2936 26.3322C20.4335 27.0354 20.7788 27.6813 21.2857 28.1883C21.7927 28.6952 22.4386 29.0405 23.1418 29.1804C23.845 29.3202 24.5738 29.2484 25.2362 28.9741C25.8986 28.6997 26.4647 28.2351 26.8631 27.6389C27.2614 27.0428 27.474 26.342 27.474 25.625C27.474 24.6636 27.0921 23.7416 26.4122 23.0617C25.7324 22.3819 24.8104 22 23.849 22ZM36.5002 29.25C35.5388 29.25 34.6168 29.6319 33.937 30.3117C33.2571 30.9916 32.8752 31.9136 32.8752 32.875V36.5C32.8752 37.4614 33.2571 38.3834 33.937 39.0633C34.6168 39.7431 35.5388 40.125 36.5002 40.125C37.4616 40.125 38.3837 39.7431 39.0635 39.0633C39.7433 38.3834 40.1252 37.4614 40.1252 36.5V32.875C40.1252 31.9136 39.7433 30.9916 39.0635 30.3117C38.3837 29.6319 37.4616 29.25 36.5002 29.25ZM67.3127 24.0663C66.0622 23.3467 64.681 22.8832 63.2496 22.7028C61.8182 22.5223 60.3652 22.6284 58.9752 23.015C57.5286 23.4025 56.1814 24.0946 55.024 25.045L12.974 0.721254C12.4229 0.403094 11.7978 0.235596 11.1615 0.235596C10.5252 0.235596 9.90005 0.403094 9.34898 0.721254C8.78904 1.036 8.32279 1.49387 7.99794 2.04802C7.6731 2.60216 7.50134 3.23267 7.50023 3.875V51.6163C5.36095 52.3379 3.5061 53.7202 2.2031 55.5639C0.900101 57.4077 0.216279 59.6176 0.250229 61.875C0.249221 64.7097 1.35508 67.4327 3.33224 69.4641C5.30939 71.4954 8.00156 72.6744 10.8352 72.75H12.9377C24.8159 72.7221 36.4752 69.5517 46.7319 63.5607C56.9885 57.5696 65.4774 48.9714 71.3365 38.6388C72.6897 36.1665 73.0303 33.2655 72.2864 30.547C71.5425 27.8286 69.7724 25.5051 67.349 24.0663H67.3127ZM14.7502 10.1463L50.6015 30.845C46.6241 36.7799 41.3069 41.6964 35.0792 45.1975C28.8515 48.6986 21.8877 50.6863 14.7502 51V10.1463ZM65.029 35.0863C59.6475 44.5681 51.7883 52.4075 42.2929 57.765C32.7975 63.1225 22.0237 65.7963 11.1252 65.5C10.1638 65.5 9.24179 65.1181 8.56197 64.4383C7.88215 63.7585 7.50023 62.8364 7.50023 61.875C7.49739 61.3893 7.5922 60.908 7.77901 60.4596C7.96583 60.0112 8.24085 59.605 8.58773 59.265C9.26875 58.6086 10.1794 58.2443 11.1252 58.25H12.974C22.282 58.2462 31.422 55.7708 39.4597 51.0768C47.4974 46.3829 54.1445 39.6387 58.7215 31.5338C58.9415 31.1361 59.2422 30.7888 59.6043 30.5142C59.9663 30.2395 60.3818 30.0435 60.824 29.9388C61.738 29.6879 62.714 29.805 63.5427 30.265C64.3744 30.7121 64.9989 31.466 65.2832 32.3664C65.5676 33.2668 65.4894 34.2426 65.0652 35.0863H65.029Z" fill="#380869"/>
</svg>
